<svg xmlns="http://www.w3.org/2000/svg" viewBox="0 0 64 64" width="512" height="512">
<defs>
<linearGradient id="bmBg" x1="0" y1="0" x2="0" y2="1">
<stop offset="0" stop-color="#18202c"/>
<stop offset="1" stop-color="#0d1117"/>
</linearGradient>
</defs>
<rect width="64" height="64" rx="14" fill="url(#bmBg)"/>
<g transform="translate(32 32) scale(0.68) translate(-32 -32)">
<g fill="none" stroke-linecap="round" stroke-linejoin="round">
<g stroke="#4de0c0" stroke-width="4.5">
<path d="M32 6 C28 3 21 4 19 9 C13 8 9 13 11 18 C5 20 4 28 9 31 C5 35 7 42 13 43 C13 50 20 55 26 53 C28 56 31 56 32 55"/>
<path d="M32 6 C28 3 21 4 19 9 C13 8 9 13 11 18 C5 20 4 28 9 31 C5 35 7 42 13 43 C13 50 20 55 26 53 C28 56 31 56 32 55" transform="matrix(-1 0 0 1 64 0)"/>
</g>
<g stroke="#2fb79a" stroke-width="3">
<path d="M32 6 V55"/>
<path d="M32 27 H19"/>
<path d="M32 33 H45"/>
</g>
<circle cx="19" cy="27" r="4.5" fill="#f4c64e"/>
<circle cx="45" cy="33" r="4.5" fill="#f4c64e"/>
</g>
</g>
</svg>
